<?xml version="1.0" encoding="UTF-8" standalone="no"?>
<!DOCTYPE svg PUBLIC "-//W3C//DTD SVG 1.1//EN" "http://www.w3.org/Graphics/SVG/1.1/DTD/svg11.dtd">
<svg width="100%" height="100%" viewBox="0 0 1000 1000" version="1.1" xmlns="http://www.w3.org/2000/svg" xmlns:xlink="http://www.w3.org/1999/xlink" xml:space="preserve" xmlns:serif="http://www.serif.com/" style="fill-rule:evenodd;clip-rule:evenodd;">
    <g id="monadic_logo" transform="matrix(1.216545,0,0,1.216545,27.980535,12.16545)">
        <rect x="-23" y="-10" width="822" height="822" style="fill:none;"/>
        <clipPath id="_clip1">
            <rect x="-23" y="-10" width="822" height="822"/>
        </clipPath>
        <g clip-path="url(#_clip1)">
            <g transform="matrix(1.18393,0,0,1.18393,-85.572053,-74.343266)">
                <path d="M640.202,109.891C653.587,141.269 661,175.81 661,212.115C661,356.187 544.15,473 400,473C255.85,473 139,356.187 139,212.115L139.01,209.886C139.307,174.396 146.684,140.626 159.795,109.891C214.261,183.211 301.568,230.769 400,230.77C498.432,230.769 585.736,183.211 640.202,109.891Z" style="fill:white;fill-rule:nonzero;stroke:rgb(77,77,77);stroke-width:38px;"/>
            </g>
            <g transform="matrix(1.18393,0,0,1.18393,-86.981616,-74.343266)">
                <path d="M401.389,160.873C246.753,160.873 120,286.236 120,440.873C120,595.509 245.364,720.873 400,720.873C554.636,720.873 680,595.509 680,440.873C680,286.236 556.025,160.873 401.389,160.873Z" style="fill:white;"/>
            </g>
            <g transform="matrix(1.18393,0,0,1.18393,-85.572053,-74.343266)">
                <path d="M158.182,440.873C158.182,376.739 183.659,315.231 229.009,269.881C274.358,224.532 335.866,199.055 400,199.055C464.134,199.055 525.642,224.532 570.991,269.881C616.341,315.231 641.818,376.739 641.818,440.873C641.818,505.007 616.341,566.514 570.991,611.864C525.642,657.214 464.134,682.691 400,682.691C335.866,682.691 274.358,657.214 229.009,611.864C183.659,566.514 158.182,505.007 158.182,440.873ZM400,160.873C245.364,160.873 120,286.236 120,440.873C120,595.509 245.364,720.873 400,720.873C554.636,720.873 680,595.509 680,440.873C680,286.236 554.636,160.873 400,160.873ZM400,491.782C413.502,491.782 426.451,486.418 435.998,476.871C445.545,467.324 450.909,454.375 450.909,440.873C450.909,427.371 445.545,414.422 435.998,404.875C426.451,395.327 413.502,389.964 400,389.964C386.498,389.964 373.549,395.327 364.002,404.875C354.455,414.422 349.091,427.371 349.091,440.873C349.091,454.375 354.455,467.324 364.002,476.871C373.549,486.418 386.498,491.782 400,491.782Z" style="fill:rgb(77,77,77);"/>
            </g>
        </g>
    </g>
</svg>
